CddbId:9a12aa1d:[150, 12479, 27486, 35720, 55817, 79126, 83680, 98647, 110248, 123450, 141753, 145698, 155559, 172573, 181775, 192778, 197684, 202711, 215681, 229435, 247934, 254988, 260300, 274753, 304017, 308989, 316191, 324546, 340781]:358500:74:9a12aa1d 29 150 12479 27486 35720 55817 79126 83680 98647 110248 123450 141753 145698 155559 172573 181775 192778 197684 202711 215681 229435 247934 254988 260300 274753 304017 308989 316191 324546 340781 4780: 29 0 0 0 0 0 0 0 0 0 0 0 0 0 0 0 0 0 0 0 0 0 0 0 0 0 0 0 0 0 4780
num_tracks: 29
offsets: [150, 12479, 27486, 35720, 55817, 79126, 83680, 98647, 110248, 123450, 141753, 145698, 155559, 172573, 181775, 192778, 197684, 202711, 215681, 229435, 247934, 254988, 260300, 274753, 304017, 308989, 316191, 324546, 340781]
extents: [0, 0, 0, 0, 0, 0, 0, 0, 0, 0, 0, 0, 0, 0, 0, 0, 0, 0, 0, 0, 0, 0, 0, 0, 0, 0, 0, 0, 0]
total_length: 4780
cddb: [2584914461, 29, 150, 12479, 27486, 35720, 55817, 79126, 83680, 98647, 110248, 123450, 141753, 145698, 155559, 172573, 181775, 192778, 197684, 202711, 215681, 229435, 247934, 254988, 260300, 274753, 304017, 308989, 316191, 324546, 340781, 4780]
musicbrainz: ('29 150 12479 27486 35720 55817 79126 83680 98647 110248 123450 141753 145698 155559 172573 181775 192778 197684 202711 215681 229435 247934 254988 260300 274753 304017 308989 316191 324546 340781 358509', '08F6zdyGhnPJhz17tV9gke2x79Y-')

CD record:
Device type    : Removable CD-ROM
Version        : 0
Response Format: 1
Vendor_info    : 'SAMSUNG '
Identification : 'CD-ROM SC-148A  '
Revision       : 'B403'
Device seems to be: Generic mmc CD-ROM.
Using generic SCSI-3/mmc   CD-ROM driver (mmc_cd).
Driver flags   : MMC-2 SWABAUDIO 
Supported modes: 
first: 1 last 29
track:   1 lba:         0 (        0) 00:02:00 adr: 1 control: 0 mode: -1
track:   2 lba:     12329 (    49316) 02:46:29 adr: 1 control: 0 mode: -1
track:   3 lba:     27336 (   109344) 06:06:36 adr: 1 control: 0 mode: -1
track:   4 lba:     35570 (   142280) 07:56:20 adr: 1 control: 0 mode: -1
track:   5 lba:     55667 (   222668) 12:24:17 adr: 1 control: 0 mode: -1
track:   6 lba:     78976 (   315904) 17:35:01 adr: 1 control: 0 mode: -1
track:   7 lba:     83530 (   334120) 18:35:55 adr: 1 control: 0 mode: -1
track:   8 lba:     98497 (   393988) 21:55:22 adr: 1 control: 0 mode: -1
track:   9 lba:    110098 (   440392) 24:29:73 adr: 1 control: 0 mode: -1
track:  10 lba:    123300 (   493200) 27:26:00 adr: 1 control: 0 mode: -1
track:  11 lba:    141603 (   566412) 31:30:03 adr: 1 control: 0 mode: -1
track:  12 lba:    145548 (   582192) 32:22:48 adr: 1 control: 0 mode: -1
track:  13 lba:    155409 (   621636) 34:34:09 adr: 1 control: 0 mode: -1
track:  14 lba:    172423 (   689692) 38:20:73 adr: 1 control: 0 mode: -1
track:  15 lba:    181625 (   726500) 40:23:50 adr: 1 control: 0 mode: -1
track:  16 lba:    192628 (   770512) 42:50:28 adr: 1 control: 0 mode: -1
track:  17 lba:    197534 (   790136) 43:55:59 adr: 1 control: 0 mode: -1
track:  18 lba:    202561 (   810244) 45:02:61 adr: 1 control: 0 mode: -1
track:  19 lba:    215531 (   862124) 47:55:56 adr: 1 control: 0 mode: -1
track:  20 lba:    229285 (   917140) 50:59:10 adr: 1 control: 0 mode: -1
track:  21 lba:    247784 (   991136) 55:05:59 adr: 1 control: 0 mode: -1
track:  22 lba:    254838 (  1019352) 56:39:63 adr: 1 control: 0 mode: -1
track:  23 lba:    260150 (  1040600) 57:50:50 adr: 1 control: 0 mode: -1
track:  24 lba:    274603 (  1098412) 61:03:28 adr: 1 control: 0 mode: -1
track:  25 lba:    303867 (  1215468) 67:33:42 adr: 1 control: 0 mode: -1
track:  26 lba:    308839 (  1235356) 68:39:64 adr: 1 control: 0 mode: -1
track:  27 lba:    316041 (  1264164) 70:15:66 adr: 1 control: 0 mode: -1
track:  28 lba:    324396 (  1297584) 72:07:21 adr: 1 control: 0 mode: -1
track:  29 lba:    340631 (  1362524) 75:43:56 adr: 1 control: 0 mode: -1
track:lout lba:    358359 (  1433436) 79:40:09 adr: 1 control: 0 mode: -1
